HIERARCHY
ROOT SpineBase
{
  OFFSET 0.000000 0.000000 0.000000
  CHANNELS 6 Xposition Yposition Zposition Zrotation Xrotation Yrotation
  JOINT SpineMid
  {
    OFFSET 0.000000 34.235920 0.000000
    CHANNELS 3 Zrotation Xrotation Yrotation
    JOINT SpineShoulder
    {
      OFFSET -0.327946 25.390574 -0.785098
      CHANNELS 3 Zrotation Xrotation Yrotation
      JOINT Neck
      {
        OFFSET -0.206349 8.393389 -0.613498
        CHANNELS 3 Zrotation Xrotation Yrotation
        JOINT Head
        {
          OFFSET 4.617910 8.929449 6.660954
          CHANNELS 3 Zrotation Xrotation Yrotation
          End Site
          {
            OFFSET 0 0 0
          }
        }
      }
      JOINT ShoulderLeft
      {
        OFFSET -9.587323 -5.556770 -6.796172
        CHANNELS 3 Zrotation Xrotation Yrotation
        JOINT ElbowLeft
        {
          OFFSET -8.361153 -20.781981 8.343237
          CHANNELS 3 Zrotation Xrotation Yrotation
          JOINT WristLeft
          {
            OFFSET 0.835173 -22.320123 8.501054
            CHANNELS 3 Zrotation Xrotation Yrotation
            JOINT HandLeft
            {
              OFFSET -0.068770 -8.227473 3.755951
              CHANNELS 3 Zrotation Xrotation Yrotation
              JOINT HandTipLeft
              {
                OFFSET 0.476070 -7.038172 0.478955
                CHANNELS 3 Zrotation Xrotation Yrotation
                End Site
                {
                  OFFSET 0 0 0
                }
              }
              JOINT ThumbLeft
              {
                OFFSET 0.989364 -4.375787 -1.794194
                CHANNELS 3 Zrotation Xrotation Yrotation
                End Site
                {
                  OFFSET 0 0 0
                }
              }
            }
          }
        }
      }
      JOINT ShoulderRight
      {
        OFFSET 6.959038 -4.830308 -13.940004
        CHANNELS 3 Zrotation Xrotation Yrotation
        JOINT ElbowRight
        {
          OFFSET 6.873169 -23.392028 -1.358081
          CHANNELS 3 Zrotation Xrotation Yrotation
          JOINT WristRight
          {
            OFFSET 5.161937 -22.546038 3.957201
            CHANNELS 3 Zrotation Xrotation Yrotation
            JOINT HandRight
            {
              OFFSET 0.173798 -6.687289 2.071486
              CHANNELS 3 Zrotation Xrotation Yrotation
              JOINT HandTipRight
              {
                OFFSET 1.293028 -7.004711 0.558562
                CHANNELS 3 Zrotation Xrotation Yrotation
                End Site
                {
                  OFFSET 0 0 0
                }
              }
              JOINT ThumbRight
              {
                OFFSET -4.687916 3.422282 -1.578978
                CHANNELS 3 Zrotation Xrotation Yrotation
                End Site
                {
                  OFFSET 0 0 0
                }
              }
            }
          }
        }
      }
    }
  }
  JOINT HipLeft
  {
    OFFSET -5.925192 1.032916 -2.045535
    CHANNELS 3 Zrotation Xrotation Yrotation
    JOINT KneeLeft
    {
      OFFSET -2.986703 -27.637650 0.964096
      CHANNELS 3 Zrotation Xrotation Yrotation
      JOINT AnkleLeft
      {
        OFFSET -0.653173 -25.071157 1.788296
        CHANNELS 3 Zrotation Xrotation Yrotation
        JOINT FootLeft
        {
          OFFSET -4.517352 -2.596319 -13.341608
          CHANNELS 3 Zrotation Xrotation Yrotation
          End Site
          {
            OFFSET 0 0 0
          }
        }
      }
    }
  }
  JOINT HipRight
  {
    OFFSET 4.383935 1.557466 -4.973605
    CHANNELS 3 Zrotation Xrotation Yrotation
    JOINT KneeRight
    {
      OFFSET 4.330704 -24.205343 -4.037604
      CHANNELS 3 Zrotation Xrotation Yrotation
      JOINT AnkleRight
      {
        OFFSET 0.012263 -27.654819 -3.109687
        CHANNELS 3 Zrotation Xrotation Yrotation
        JOINT FootRight
        {
          OFFSET -3.863483 -3.381249 -10.144046
          CHANNELS 3 Zrotation Xrotation Yrotation
          End Site
          {
            OFFSET 0 0 0
          }
        }
      }
    }
  }
}
MOTION
Frames: 8
Frame Time: 0.033333
60.441768 58.882137 279.681952 2.405101 -1.000258 17.450137 -0.127072 -0.134325 -17.368331 -0.078913 -0.017023 0.079214 3.962476 -5.754579 -0.986894 0.000000 0.000000 0.000000 0.032344 -0.263114 1.371293 -0.087121 2.278845 -0.698664 7.013397 -0.877191 3.464606 -13.857705 -1.820875 -4.686881 0.000000 0.000000 0.000000 0.000000 0.000000 0.000000 -2.666167 -2.027245 -1.038384 -2.918550 -2.036158 -0.834901 5.006475 3.553499 1.983878 -8.694904 2.924075 -0.536029 0.000000 0.000000 0.000000 0.000000 0.000000 0.000000 -2.065155 2.750332 -17.519496 2.073941 1.765184 0.163017 -0.761431 -5.615538 0.176478 0.000000 0.000000 0.000000 -1.706757 4.561355 -16.811050 1.315010 -2.307985 -0.640756 0.117566 -1.663950 -1.271281 0.000000 0.000000 0.000000
60.379527 58.918235 279.730235 2.435138 -1.034389 17.838424 -0.153247 -0.106953 -17.755920 -0.081544 -0.006279 0.078828 4.340705 -6.140819 -1.034275 0.000000 0.000000 0.000000 0.425943 -0.550271 1.650685 -0.744239 2.778531 -1.070491 6.618326 -1.756671 3.319546 -12.614877 -0.155547 -4.133894 0.000000 0.000000 0.000000 0.000000 0.000000 0.000000 -2.774459 -2.108497 -1.058497 -2.689246 -1.513191 -0.682824 4.221449 3.439378 1.741432 -8.435375 3.036627 -0.292835 0.000000 0.000000 0.000000 0.000000 0.000000 0.000000 -1.962307 2.991965 -17.931192 2.196570 1.444578 0.206508 -0.947650 -5.505775 0.292038 0.000000 0.000000 0.000000 -1.679980 4.710329 -17.180049 1.314988 -2.450939 -0.657129 -2.803815 5.338986 -0.269146 0.000000 0.000000 0.000000
60.328721 58.939368 279.769563 2.440919 -1.063660 18.118920 -0.161070 -0.088874 -18.036271 -0.086820 0.001304 0.078095 4.627010 -6.318979 -1.130989 0.000000 0.000000 0.000000 0.890395 -0.743084 1.919147 -1.547091 3.048362 -1.454367 6.517662 -1.724195 3.234378 -11.986488 2.248220 -3.678299 0.000000 0.000000 0.000000 0.000000 0.000000 0.000000 -2.938551 -2.197722 -1.078193 -2.259679 -0.948346 -0.505007 3.663583 2.907068 1.543384 -7.322300 4.243837 0.127991 0.000000 0.000000 0.000000 0.000000 0.000000 0.000000 -1.853182 3.184315 -18.232231 2.550270 1.175603 0.262476 -1.368505 -5.415033 0.415690 0.000000 0.000000 0.000000 -1.631482 4.857768 -17.440059 1.357380 -2.725754 -0.677910 -3.192762 6.186657 0.004944 0.000000 0.000000 0.000000
60.268276 58.923699 279.815653 2.422652 -1.084066 18.189937 -0.176770 -0.075066 -18.108320 -0.099303 0.008914 0.075652 4.957352 -6.610198 -1.160285 0.000000 0.000000 0.000000 1.407775 -0.847639 2.159078 -2.377070 3.097058 -1.809541 6.569724 -2.107908 3.245768 -11.783578 4.138428 -3.327484 0.000000 0.000000 0.000000 0.000000 0.000000 0.000000 -3.048780 -2.268129 -1.090069 -1.907497 -0.214869 -0.297143 2.864420 2.025129 1.226066 -6.881991 4.979676 0.473326 0.000000 0.000000 0.000000 0.000000 0.000000 0.000000 -1.709179 3.311551 -18.321248 2.659689 0.772767 0.306447 -1.585251 -5.132112 0.534424 0.000000 0.000000 0.000000 -1.580812 5.041031 -17.478207 1.447347 -3.059223 -0.711496 -2.129544 3.584552 -0.249540 0.000000 0.000000 0.000000
60.202356 58.904983 279.860192 2.411583 -1.078378 18.273360 -0.186083 -0.066263 -18.192535 -0.108019 0.016311 0.074325 5.053013 -6.782345 -1.109914 0.000000 0.000000 0.000000 1.806635 -0.974110 2.358469 -3.028478 3.121007 -2.096755 6.635712 -1.875516 3.231483 -12.233124 3.789584 -3.281982 0.000000 0.000000 0.000000 0.000000 0.000000 0.000000 -3.228189 -2.326302 -1.091718 -1.477607 0.506831 -0.098800 2.510848 -0.150856 0.970991 -6.455360 6.193307 0.672672 0.000000 0.000000 0.000000 0.000000 0.000000 0.000000 -1.491841 3.442985 -18.430673 2.824149 0.402988 0.363035 -1.919575 -4.950929 0.605755 0.000000 0.000000 0.000000 -1.571485 5.180764 -17.529444 1.618798 -3.405219 -0.745710 -2.289843 3.787975 -0.134096 0.000000 0.000000 0.000000
60.134680 58.855841 279.909764 2.400320 -1.072644 18.238140 -0.196148 -0.055856 -18.158155 -0.115603 0.022842 0.073013 5.119928 -6.902977 -1.069326 0.000000 0.000000 0.000000 2.040607 -1.038567 2.463773 -3.078104 3.103062 -2.145588 5.608984 -1.230677 2.715961 -11.376099 4.518836 -2.835561 0.000000 0.000000 0.000000 0.000000 0.000000 0.000000 -3.419094 -2.342236 -1.079887 -1.091324 0.767726 -0.031071 1.736628 -0.369074 0.719172 -4.645351 5.434490 0.671459 0.000000 0.000000 0.000000 0.000000 0.000000 0.000000 -1.396467 3.492348 -18.406954 2.372373 0.215621 0.344956 -1.540944 -4.864753 0.734535 0.000000 0.000000 0.000000 -1.564193 5.338337 -17.458381 1.851003 -3.757407 -0.785272 -2.517463 3.971314 0.002086 0.000000 0.000000 0.000000
60.063620 58.805063 279.958032 2.402955 -1.047144 18.265968 -0.215978 -0.039805 -18.186687 -0.130017 0.029794 0.071636 5.154851 -7.246539 -0.872187 0.000000 0.000000 0.000000 2.111040 -1.108903 2.494202 -3.282025 3.128908 -2.227663 6.211158 -0.517171 2.944470 -12.653325 -0.221680 -3.623070 0.000000 0.000000 0.000000 0.000000 0.000000 0.000000 -3.625413 -2.338642 -1.055671 -0.684751 0.984665 0.020163 1.515413 -1.298947 0.597215 -4.912074 6.105294 0.769453 0.000000 0.000000 0.000000 0.000000 0.000000 0.000000 -1.385409 3.471403 -18.436478 2.118111 0.293355 0.321201 -1.321029 -4.958596 0.873912 0.000000 0.000000 0.000000 -1.555570 5.444083 -17.461733 2.029050 -4.030785 -0.813815 -3.016256 6.023446 -0.950971 0.000000 0.000000 0.000000
59.973467 58.774287 280.010268 2.400801 -1.011770 18.423760 -0.231294 -0.027795 -18.345337 -0.143804 0.040084 0.070430 5.122129 -7.644928 -0.594519 0.000000 0.000000 0.000000 2.044569 -1.140788 2.447836 -3.328204 3.134555 -2.228293 7.208739 1.835263 3.250082 -13.966144 -3.286748 -4.537094 0.000000 0.000000 0.000000 0.000000 0.000000 0.000000 -3.713508 -2.218392 -0.998264 -0.460535 0.786775 -0.039044 1.028538 -1.022396 0.483504 -5.489200 5.783085 0.834958 0.000000 0.000000 0.000000 0.000000 0.000000 0.000000 -1.384168 3.452052 -18.596729 1.417835 0.450424 0.256684 -0.621836 -5.157081 1.049221 0.000000 0.000000 0.000000 -1.484216 5.513958 -17.610264 2.129416 -4.232862 -0.831751 -2.813156 3.665566 0.596063 0.000000 0.000000 0.000000
